<svg xmlns="http://www.w3.org/2000/svg" width="525.87" height="594.34" viewBox="0 0 525.87 594.34"><defs><style>.cls-1{fill:#5bc6cc;}.cls-2{fill:#fff;}</style></defs><title>Asset 1</title><g id="Layer_2" data-name="Layer 2"><g id="Artwork"><path class="cls-1" d="M282.25,280.67a2.26,2.26,0,0,1-2.73.42l-2-1.1a257.66,257.66,0,0,1-57.83-46.39c-36.4-39.25-50.73-82.76-41.43-125.83l.67-3.08a2.26,2.26,0,0,1,2.83-1.7l3,.86c2.56.73,63,18.29,87.78,60.09,14,23.63,21.74,36.31,25.85,42.95a2.25,2.25,0,0,0,3.39.52c10.95-9.35,32.84-31.89,37.26-65.52,3.7-28.09-5.8-55.66-11.28-68.66a2.26,2.26,0,0,0-3.37-1c-14.11,9.79-44.62,33.15-50,55.3l-.91,3.75a2.26,2.26,0,0,1-3.29,1.45l-3.38-1.85C263.93,129.3,195.23,91,206.24,32l.57-3.08a2.26,2.26,0,0,1,2.77-1.78l3,.76c2.09.52,46.85,11.94,61.44,37.9a2.25,2.25,0,0,0,3.4.63,49.77,49.77,0,0,0,13.79-19.27c3.58-8.48,5.24-24.42,1.11-34.8A2.27,2.27,0,0,0,289.7,11c-5.9,1.53-16.72,7.26-24.61,28.41a2.28,2.28,0,0,1-2.88,1.34l-5.56-1.93a2.26,2.26,0,0,1-1.39-2.91C269.42-2.25,294-.06,295.06.06l1.34.14a2.26,2.26,0,0,1,1.62,1l.77,1.11c9.64,13.92,6.94,37.43,2.09,48.93-9.52,22.56-25.79,29.09-26.48,29.36l-3.1,1.2a2.26,2.26,0,0,1-3-1.54L267.47,77c-4.69-18.17-32-30.83-48.93-36.5a2.27,2.27,0,0,0-3,2.11c-1.19,36.43,33,63.77,48.67,74.34a2.25,2.25,0,0,0,3.29-.91c13.83-29.62,56.59-56.22,58.58-57.45l2.67-1.65a2.26,2.26,0,0,1,3.18.86l1.48,2.77c.88,1.65,21.5,40.79,16,82.67C342.86,193.14,303,219.91,301.3,221l-2.42,1.6a2.26,2.26,0,0,1-3.11-.61l-1.64-2.39c-.19-.28-5.06-7.46-30.52-50.34C246,139.64,206.92,122.76,190,116.6a2.27,2.27,0,0,0-3,1.79c-5.23,37.14,8.27,73.4,40.19,107.91a256.77,256.77,0,0,0,49.91,41.24,2.27,2.27,0,0,0,3.07-.62c4.43-6.29,10.95-18,9.79-31a2.24,2.24,0,0,1,1.92-2.39l5.86-.88a2.28,2.28,0,0,1,2.6,2.06c2.34,24.3-15.68,43.5-16.48,44.34Z"/><path class="cls-2" d="M156.81,564.82h-9v-3.23h21.58v3.23h-9.09v29.06h-3.46Z"/><path class="cls-2" d="M183.8,561.41h3.41l12.31,32.47h-3.69l-3.13-8.49H178.17L175,593.88h-3.55Zm7.75,20.85-6.09-16.37-6.13,16.37Z"/><path class="cls-2" d="M204.64,589.77l2.16-2.63c2.68,2.49,5.44,4,9.09,4,3.87,0,6.46-2.35,6.46-5.44v0c0-2.67-1.29-4.38-7.15-6.46-6.69-2.49-9.32-4.89-9.32-9.45v-.09c0-4.84,4.06-8.53,9.73-8.53a14,14,0,0,1,9.69,3.64l-2.08,2.67a11.57,11.57,0,0,0-7.75-3.14c-3.69,0-6.09,2.26-6.09,5v.09c0,2.81,1.43,4.43,7.52,6.64,6.55,2.44,8.95,5.07,8.95,9.36v.09c0,5.17-4.24,8.81-10,8.81A15.84,15.84,0,0,1,204.64,589.77Z"/><path class="cls-2" d="M234.34,561.59h3.6l9.82,17.29,9.87-17.29h3.6v32.28h-3.46v-26l-10,17.25h-.14l-10-17.25v26h-3.37Z"/><path class="cls-2" d="M281.25,561.41h3.41L297,593.88h-3.69l-3.14-8.49H275.62l-3.13,8.49h-3.55ZM289,582.25l-6.09-16.37-6.13,16.37Z"/><path class="cls-2" d="M304.68,561.59H308L324.83,587V561.59h3.41v32.28h-2.91l-17.3-26v26h-3.37Z"/><path class="cls-2" d="M338.62,561.59h3.46v32.28h-3.46Z"/><path class="cls-2" d="M362.37,561.41h3.41l12.31,32.47h-3.69l-3.13-8.49H356.75l-3.14,8.49h-3.55Zm7.75,20.85L364,565.88l-6.13,16.37Z"/><rect class="cls-1" x="205.29" y="528.38" width="115.3" height="7.69" rx="1.7" ry="1.7"/><path class="cls-2" d="M22.52,321.14a2.27,2.27,0,0,1,2-1.68h1.8a2.28,2.28,0,0,1,1.91,1.23l23.46,57.37h.45l23.35-57.37a2.14,2.14,0,0,1,1.91-1.23h1.8a2.27,2.27,0,0,1,2,1.68L95,396.58a1.91,1.91,0,0,1-2,2.58h-7.3a2.33,2.33,0,0,1-2.13-1.57l-8.31-50.19H75L54.74,399.05a1.91,1.91,0,0,1-1.91,1.24h-2a2,2,0,0,1-1.91-1.24L28.59,347.41h-.45l-8.08,50.19a2.18,2.18,0,0,1-2,1.57h-7.3a2,2,0,0,1-2.13-2.58Z"/><path class="cls-2" d="M112.68,322.71a2.21,2.21,0,0,1,2.13-2.13h7.41a2.21,2.21,0,0,1,2.13,2.13V397a2.21,2.21,0,0,1-2.13,2.13h-7.41a2.21,2.21,0,0,1-2.13-2.13Z"/><path class="cls-2" d="M147.25,321.47a2.11,2.11,0,0,1,2.13-2h2.8l48.73,56.36H201v-53.1a2.13,2.13,0,0,1,2.13-2.13h7.19a2.21,2.21,0,0,1,2.13,2.13v75.56a2.11,2.11,0,0,1-2.13,2h-2.92l-48.73-57.93h-.11V397a2.13,2.13,0,0,1-2.13,2.13h-7.07a2.21,2.21,0,0,1-2.13-2.13Z"/><path class="cls-2" d="M235.39,322.71a2.21,2.21,0,0,1,2.13-2.13h7.41a2.21,2.21,0,0,1,2.13,2.13V397a2.21,2.21,0,0,1-2.13,2.13h-7.41a2.21,2.21,0,0,1-2.13-2.13Z"/><path class="cls-2" d="M264.91,387.83c1-1.46,1.91-3.14,2.92-4.6s2.58-1.91,3.82-.9c.67.56,9.32,7.75,18,7.75,7.74,0,12.69-4.71,12.69-10.44,0-6.74-5.84-11-17-15.61-11.45-4.83-20.43-10.78-20.43-23.8,0-8.76,6.74-20.77,24.59-20.77a38,38,0,0,1,20.77,6.62,2.67,2.67,0,0,1,.68,3.82c-.9,1.35-1.91,2.92-2.81,4.27s-2.36,2.13-3.93,1.12c-.78-.45-8.64-5.61-15.15-5.61-9.43,0-12.69,6-12.69,10.1,0,6.4,4.94,10.33,14.26,14.15,13,5.28,24.14,11.45,24.14,25.15,0,11.68-10.44,21.22-25,21.22a36.35,36.35,0,0,1-24.14-8.87C264.58,390.52,263.79,389.74,264.91,387.83Z"/><path class="cls-2" d="M342.16,331.13h-18.3a2.13,2.13,0,0,1-2.13-2.13v-6.29a2.13,2.13,0,0,1,2.13-2.13h48.28a2.13,2.13,0,0,1,2.13,2.13V329a2.13,2.13,0,0,1-2.13,2.13h-18.3V397a2.21,2.21,0,0,1-2.13,2.13h-7.41a2.21,2.21,0,0,1-2.13-2.13Z"/><path class="cls-2" d="M478.68,361.33l-26.27-37.5a2.08,2.08,0,0,1,1.8-3.26h8.31a2.23,2.23,0,0,1,1.8,1l20.32,28.63,20.32-28.63a2.42,2.42,0,0,1,1.8-1h8.42a2.08,2.08,0,0,1,1.8,3.26l-26.61,37.39V397a2.21,2.21,0,0,1-2.13,2.13h-7.41a2.13,2.13,0,0,1-2.13-2.13Z"/><line class="cls-2" x1="412.9" y1="361.73" x2="412.87" y2="361.65"/><path class="cls-2" d="M428.09,367.49a.1.1,0,0,1,0-.14c9.71-3.95,16.52-12.46,16.52-22.75a24.22,24.22,0,0,0-24.47-24H389.65a2.13,2.13,0,0,0-2.13,2.13V397a2.13,2.13,0,0,0,2.13,2.13h7.2a2.46,2.46,0,0,0,2.46-2.46V331.57a.1.1,0,0,1,.1-.1H419c7.77,0,14.35,6.37,13.92,14.13a14,14,0,0,1-13.67,13.15h-4.06c-1.88-.07-3,1.55-2.33,3s4.3,9,4.3,9L431,398.16a2.07,2.07,0,0,0,1.8,1h8.76a2.12,2.12,0,0,0,1.91-3.26Z"/><path class="cls-2" d="M20.43,432.17H2.13A2.13,2.13,0,0,1,0,430v-6.29a2.13,2.13,0,0,1,2.13-2.13H50.41a2.13,2.13,0,0,1,2.13,2.13V430a2.13,2.13,0,0,1-2.13,2.13H32.11v65.9A2.21,2.21,0,0,1,30,500.21H22.57a2.21,2.21,0,0,1-2.13-2.13Z"/><path class="cls-2" d="M131,497.29l34.47-75.56a2.63,2.63,0,0,1,1.91-1.23h1.12a2.63,2.63,0,0,1,1.91,1.23l34.24,75.56a2,2,0,0,1-1.91,2.92h-7.07a2.62,2.62,0,0,1-2.58-1.68l-7-15.38H149.43c-2.25,5.16-4.6,10.22-6.85,15.38a2.82,2.82,0,0,1-2.58,1.68h-7.07A2,2,0,0,1,131,497.29Zm50.86-23.8-13.81-30.76h-.56l-13.7,30.76Z"/><path class="cls-2" d="M217,423.75a2.21,2.21,0,0,1,2.13-2.13h7.41a2.21,2.21,0,0,1,2.13,2.13v74.32a2.21,2.21,0,0,1-2.13,2.13h-7.41a2.21,2.21,0,0,1-2.13-2.13Z"/><path class="cls-2" d="M251.59,422.51a2.11,2.11,0,0,1,2.13-2h2.8l48.73,56.36h.11v-53.1a2.13,2.13,0,0,1,2.13-2.13h7.19a2.21,2.21,0,0,1,2.13,2.13v75.56a2.11,2.11,0,0,1-2.13,2h-2.92L263,443.4h-.11v54.68a2.13,2.13,0,0,1-2.13,2.13h-7.07a2.21,2.21,0,0,1-2.13-2.13Z"/><path class="cls-2" d="M339.73,423.75a2.21,2.21,0,0,1,2.13-2.13h7.41a2.21,2.21,0,0,1,2.13,2.13v74.32a2.21,2.21,0,0,1-2.13,2.13h-7.41a2.21,2.21,0,0,1-2.13-2.13Z"/><path class="cls-2" d="M374.31,422.51a2.11,2.11,0,0,1,2.13-2h2.81L428,476.85h.11v-53.1a2.13,2.13,0,0,1,2.13-2.13h7.19a2.21,2.21,0,0,1,2.13,2.13v75.56a2.11,2.11,0,0,1-2.13,2h-2.92L385.76,443.4h-.11v54.68a2.13,2.13,0,0,1-2.13,2.13h-7.07a2.21,2.21,0,0,1-2.13-2.13Z"/><path class="cls-2" d="M497.13,420.49c10.78,0,19.65,3.93,27.28,10.44a2.17,2.17,0,0,1,.11,3.14c-1.68,1.8-3.37,3.48-5.05,5.28-.9,1-1.8.9-2.92-.11-5.28-4.6-12.24-7.64-19.09-7.64-15.94,0-28.18,13.47-28.18,29.19s12.24,29.08,28.18,29.08a39.54,39.54,0,0,0,16.84-3.82V473.49h-11a2,2,0,0,1-2.13-2V465a2.06,2.06,0,0,1,2.13-2.13h20.43a2.11,2.11,0,0,1,2,2.13c0,9,.11,18.19.11,27.17a2.78,2.78,0,0,1-.9,1.8,56.12,56.12,0,0,1-27.84,7.41,40.42,40.42,0,1,1,0-80.84Z"/><path class="cls-2" d="M106.34,468.54a.1.1,0,0,1,0-.14c9.71-3.95,16.52-12.46,16.52-22.75a24.22,24.22,0,0,0-24.47-24H67.89a2.13,2.13,0,0,0-2.13,2.13v74.32a2.13,2.13,0,0,0,2.13,2.13h7.2a2.46,2.46,0,0,0,2.46-2.46V432.62a.1.1,0,0,1,.1-.1H97.28c7.77,0,14.35,6.37,13.92,14.13A14,14,0,0,1,97.53,459.8H93.47c-1.88-.07-3,1.55-2.33,3s4.3,9,4.3,9l13.76,27.42a2.07,2.07,0,0,0,1.8,1h8.76a2.12,2.12,0,0,0,1.91-3.26Z"/></g></g></svg>