<svg xmlns="http://www.w3.org/2000/svg" width="155mm" height="243.29mm" viewBox="0 0 439.38 689.64"><defs><style>.cls-1{fill:#65c8c9;}.cls-2{fill:#fff;}.cls-3{fill:#002d3f;}</style></defs><title>MTT logo acronym VERT LIGHT color swap</title><g id="Layer_2" data-name="Layer 2"><rect class="cls-1" width="439.38" height="689.64"/></g><g id="Artwork"><path class="cls-2" d="M184.47,392.88a3,3,0,0,1-3.63.56L178.19,392c-1.65-.91-40.75-22.73-76.82-61.62C53,278.22,34,220.42,46.34,163.2l.88-4.09A3,3,0,0,1,51,156.85L55,158c3.4,1,83.63,24.29,116.61,79.83,18.63,31.39,28.88,48.23,34.34,57.05a3,3,0,0,0,4.5.69c14.55-12.42,43.62-42.36,49.5-87,4.91-37.31-7.71-73.94-15-91.21a3,3,0,0,0-4.48-1.31c-18.74,13-59.27,44-66.41,73.47l-1.21,5a3,3,0,0,1-4.37,1.93L164,193.92c-3.89-2.13-95.14-53-80.52-131.39l.76-4.1a3,3,0,0,1,3.68-2.37l4,1c2.78.69,62.24,15.87,81.62,50.35a3,3,0,0,0,4.52.84c5.66-4.71,12.88-12.7,18.31-25.59,4.75-11.26,7-32.45,1.48-46.23a3,3,0,0,0-3.56-1.83c-7.84,2-22.21,9.64-32.69,37.74a3,3,0,0,1-3.83,1.78l-7.39-2.57a3,3,0,0,1-1.84-3.87C167.42,17,200.08,20,201.49,20.11l1.79.19a3,3,0,0,1,2.15,1.28l1,1.48c12.8,18.49,9.22,49.72,2.77,65-12.65,30-34.26,38.64-35.17,39l-4.12,1.6a3,3,0,0,1-4-2.05l-1.1-4.28c-6.23-24.14-42.46-40.95-65-48.49a3,3,0,0,0-4,2.8c-1.58,48.4,43.85,84.71,64.66,98.76a3,3,0,0,0,4.37-1.21c18.37-39.35,75.18-74.68,77.82-76.31l3.55-2.19a3,3,0,0,1,4.23,1.14l2,3.68c1.17,2.19,28.56,54.19,21.24,109.83C265,276.6,212,312.16,209.77,313.64l-3.22,2.12a3,3,0,0,1-4.14-.81l-2.18-3.18c-.26-.38-6.72-9.9-40.55-66.87-23.37-39.37-75.3-61.79-97.77-70a3,3,0,0,0-4,2.38c-6.94,49.34,11,97.51,53.39,143.35,25.58,27.65,53.41,46.67,66.3,54.78a3,3,0,0,0,4.08-.82c5.89-8.35,14.54-23.86,13-41.2a3,3,0,0,1,2.55-3.17l7.78-1.18a3,3,0,0,1,3.46,2.74c3.11,32.28-20.84,57.79-21.89,58.9Z" transform="translate(62.52 17.11)"/><path class="cls-3" d="M54.22,434.63a5.55,5.55,0,0,1,4.94-4.12h4.39c1.65,0,4.12,1.37,4.67,3l57.4,140.35h1.1l57.13-140.35a5.24,5.24,0,0,1,4.67-3h4.39a5.55,5.55,0,0,1,4.94,4.12L231.65,619.2c.82,3.85-1.09,6.32-4.94,6.32H208.85a5.71,5.71,0,0,1-5.22-3.85L183.31,498.9h-.82L133,625.24a4.67,4.67,0,0,1-4.67,3h-4.94a4.92,4.92,0,0,1-4.66-3L69.05,498.9H68L48.18,621.67c-.27,1.92-2.75,3.85-4.94,3.85H25.38c-3.85,0-5.77-2.47-5.22-6.32Z" transform="translate(62.52 17.11)"/><circle class="cls-2" cx="333.81" cy="545.04" r="9.95"/><path class="cls-3" d="M264.83,442.29H249.75a1.87,1.87,0,0,1-1.87-1.87v-8.08a1.87,1.87,0,0,1,1.87-1.87h43.09a1.87,1.87,0,0,1,1.87,1.87v8.08a1.87,1.87,0,0,1-1.87,1.87H277.75v55.31a1.94,1.94,0,0,1-1.87,1.87h-9.17a1.94,1.94,0,0,1-1.87-1.87Z" transform="translate(62.52 17.11)"/><path class="cls-3" d="M264.83,568.2H249.75a1.87,1.87,0,0,1-1.87-1.87v-8.08a1.87,1.87,0,0,1,1.87-1.87h43.09a1.87,1.87,0,0,1,1.87,1.87v8.08a1.87,1.87,0,0,1-1.87,1.87H277.75v55.31a1.94,1.94,0,0,1-1.87,1.87h-9.17a1.94,1.94,0,0,1-1.87-1.87Z" transform="translate(62.52 17.11)"/></g></svg>