<svg xmlns="http://www.w3.org/2000/svg" xmlns:xlink="http://www.w3.org/1999/xlink" width="352.89" height="122.78" viewBox="0 0 352.89 122.78"><defs><style>.cls-1{fill:#646361;}.cls-2{clip-path:url(#clip-path);}.cls-3{clip-path:url(#clip-path-2);}</style><clipPath id="clip-path" transform="translate(-62.9 -16.76)"><path class="cls-1" d="M95.21,87.8l-1-2.17a9.66,9.66,0,0,0,5.66-5.4L95.1,79a9.58,9.58,0,0,1-6,5.4l-1-2.28a7.12,7.12,0,0,0,4.48-3.78l-5-1.33a6.92,6.92,0,0,1-4.71,3.74l-.82-2.2a4.61,4.61,0,0,0,3.25-2.14L80.16,75l.66-2.47,5.28,1.41a4.66,4.66,0,0,0-1.87-3.7L86.35,69a6.94,6.94,0,0,1,2,5.53l5,1.33a7.17,7.17,0,0,0-2-5.68l2.18-1.26a9.58,9.58,0,0,1,2.23,7.58l4.78,1.27a9.7,9.7,0,0,0-2.3-7.65l2.06-1.22a12,12,0,0,1,2.59,9.49l10.78,2.89a2.48,2.48,0,0,0-.1-.55c-6.48-33.49-28-34.2-50.68-13.39,0,0,6.88,25,19.14,28.5,14.76,4.27,29.31-8.63,31.14-12.52l-11-2.48A12,12,0,0,1,95.21,87.8Z"/></clipPath><clipPath id="clip-path-2" transform="translate(-62.9 -16.76)"><path class="cls-1" d="M149.81,16.76s-24.73,5-32.24,17.23,4.51,31.41,4.51,31.41c2.2,4.2,4.83,6,6.56,6.81h0l3-8.49a14.49,14.49,0,0,1-7.87-9l2.69-1a11.69,11.69,0,0,0,6.11,7.26l1.9-5.69a11.6,11.6,0,0,1-6.08-7.64l2.82-1a8.61,8.61,0,0,0,4.24,5.71l2-5.87a8.39,8.39,0,0,1-4.13-6L136,39.6a5.57,5.57,0,0,0,2.34,4.1l2.07-6.2,2.93,1-2.11,6.27a5.61,5.61,0,0,0,4.61-2l1.31,2.65a8.4,8.4,0,0,1-6.83,2l-2,5.92a8.66,8.66,0,0,0,7-2l1.36,2.73a11.6,11.6,0,0,1-9.32,2.11l-1.91,5.67a11.73,11.73,0,0,0,9.41-2.19l1.31,2.59a14.52,14.52,0,0,1-11.66,2.39l-2.82,8c25.65-1.79,31.68-21.09,31.68-21.09C166.1,37.56,149.81,16.76,149.81,16.76Z"/></clipPath></defs><title>Asset 1</title><g id="Layer_2" data-name="Layer 2"><g id="Layer_1-2" data-name="Layer 1"><path class="cls-1" d="M182.43,84.86c.7,3.95,3.57,5.5,7.2,5.5,3.34,0,5.66-1.16,5.66-3.64,0-2.32-1.39-3.48-4.87-4.42l-5.27-1.24C178.8,79.51,176,76,176,70.6c0-8.67,7.05-11.31,14.25-11.31,8.13,0,13.09,2.94,13.7,9.91l-8.75,1.24c-.31-3.1-2.09-4.26-5.42-4.26-2.95,0-4.8,1.32-4.8,3.56,0,2,1.08,3.25,3.95,3.79l5,1.16c7,1.55,10.38,5.11,10.38,11.23,0,7.9-6.35,10.92-14.8,10.92-8.6,0-13.63-2.48-14.87-9.14Z" transform="translate(-62.9 -16.76)"/><path class="cls-1" d="M232.85,89.35c-1.4,5-4.81,7.51-11.07,7.51S211,93.61,211,85.24V60.15h9.22V82.92c0,4.57,1.55,7,5.42,7,3.63,0,7-3,7-9.91V60.15h9.21V95.93h-8Z" transform="translate(-62.9 -16.76)"/><path class="cls-1" d="M256.17,95.93h-6.35V44.19H259v22.7c1.94-5.42,6.51-7.59,11.54-7.59,8.75,0,13.87,6.43,13.87,17.89s-5.58,19.67-15.26,19.67c-6.12,0-9.53-2.71-10.7-6.12ZM259,81.52c0,6.43,4,8.6,7.44,8.6,4.72,0,8.67-3.87,8.67-12.08,0-7.82-3.1-11.31-8-11.31-4.26,0-8.13,3.25-8.13,9.06Z" transform="translate(-62.9 -16.76)"/><path class="cls-1" d="M296.05,95.93H289.7V44.19h9.21v22.7c1.94-5.42,6.51-7.59,11.54-7.59,8.75,0,13.87,6.43,13.87,17.89s-5.58,19.67-15.25,19.67c-6.12,0-9.53-2.71-10.7-6.12Zm2.86-14.41c0,6.43,4,8.6,7.44,8.6,4.72,0,8.67-3.87,8.67-12.08,0-7.82-3.1-11.31-8-11.31-4.26,0-8.14,3.25-8.14,9.06Z" transform="translate(-62.9 -16.76)"/><path class="cls-1" d="M335.81,43.49c3.33,0,6,2,6,5.58,0,3.41-2.64,5.42-6,5.42-3.1,0-5.73-2-5.73-5.42A5.4,5.4,0,0,1,335.81,43.49Zm4.64,16.65V95.93h-9.21V60.15Z" transform="translate(-62.9 -16.76)"/><path class="cls-1" d="M371.31,84.54l7.9,2.56c-1.7,7.2-8.05,9.76-15,9.76-10,0-16.81-6.66-16.81-18.36,0-12.24,6.58-19.21,17-19.21,9.84,0,14.8,6.58,14.8,15.65a18.44,18.44,0,0,1-.54,4.8H356.28c.23,6,3,10,8.21,10C367.66,89.73,370.06,88.5,371.31,84.54Zm-1-10.3a8.06,8.06,0,0,0,.08-1.31c0-3.8-2.25-6.66-6.35-6.66-4.26,0-7,3.1-7.51,8Z" transform="translate(-62.9 -16.76)"/><path class="cls-1" d="M393.87,84.86c.69,3.95,3.56,5.5,7.2,5.5,3.33,0,5.65-1.16,5.65-3.64,0-2.32-1.39-3.48-4.87-4.42l-5.27-1.24c-6.35-1.55-9.14-5-9.14-10.46,0-8.67,7.05-11.31,14.25-11.31,8.14,0,13.09,2.94,13.71,9.91l-8.75,1.24c-.3-3.1-2.09-4.26-5.42-4.26-2.94,0-4.8,1.32-4.8,3.56,0,2,1.08,3.25,3.95,3.79l5,1.16c7,1.55,10.38,5.11,10.38,11.23,0,7.9-6.36,10.92-14.79,10.92-8.6,0-13.63-2.48-14.87-9.14Z" transform="translate(-62.9 -16.76)"/><path class="cls-1" d="M162.9,104.25C159.48,90,136,85,132.07,84.82c.92,1.09,3.28,8.88,3.28,8.88a14.47,14.47,0,0,1,11.84,1.78L145.8,98a11.7,11.7,0,0,0-9.36-1.57l2.24,5.57a11.6,11.6,0,0,1,9.58,1.88l-1.52,2.57a8.63,8.63,0,0,0-6.95-1.67l2.33,5.81a8.38,8.38,0,0,1,7.06,1.92l-1.54,2.38a5.57,5.57,0,0,0-4.44-1.6l2.44,6.07-2.87,1.15-2.46-6.14a5.6,5.6,0,0,0-2.23,4.49l-2.71-1.17a8.41,8.41,0,0,1,3.89-6l-2.32-5.8a8.65,8.65,0,0,0-4,6l-2.8-1.2a11.62,11.62,0,0,1,5.74-7.65l-2.22-5.55a11.74,11.74,0,0,0-5.75,7.76l-2.67-1.12a14.52,14.52,0,0,1,7.33-9.37l-3.7-9.27-.24.06s-18.44,13-11,36.46c4,12.48,34,17.47,34,17.47S166.21,118.05,162.9,104.25Z" transform="translate(-62.9 -16.76)"/><path class="cls-1" d="M95.21,87.8l-1-2.17a9.66,9.66,0,0,0,5.66-5.4L95.1,79a9.58,9.58,0,0,1-6,5.4l-1-2.28a7.12,7.12,0,0,0,4.48-3.78l-5-1.33a6.92,6.92,0,0,1-4.71,3.74l-.82-2.2a4.61,4.61,0,0,0,3.25-2.14L80.16,75l.66-2.47,5.28,1.41a4.66,4.66,0,0,0-1.87-3.7L86.35,69a6.94,6.94,0,0,1,2,5.53l5,1.33a7.17,7.17,0,0,0-2-5.68l2.18-1.26a9.58,9.58,0,0,1,2.23,7.58l4.78,1.27a9.7,9.7,0,0,0-2.3-7.65l2.06-1.22a12,12,0,0,1,2.59,9.49l10.78,2.89a2.48,2.48,0,0,0-.1-.55c-6.48-33.49-28-34.2-50.68-13.39,0,0,6.88,25,19.14,28.5,14.76,4.27,29.31-8.63,31.14-12.52l-11-2.48A12,12,0,0,1,95.21,87.8Z" transform="translate(-62.9 -16.76)"/><path class="cls-1" d="M149.81,16.76s-24.73,5-32.24,17.23,4.51,31.41,4.51,31.41c2.2,4.2,4.83,6,6.56,6.81h0l3-8.49a14.49,14.49,0,0,1-7.87-9l2.69-1a11.69,11.69,0,0,0,6.11,7.26l1.9-5.69a11.6,11.6,0,0,1-6.08-7.64l2.82-1a8.61,8.61,0,0,0,4.24,5.71l2-5.87a8.39,8.39,0,0,1-4.13-6L136,39.6a5.57,5.57,0,0,0,2.34,4.1l2.07-6.2,2.93,1-2.11,6.27a5.61,5.61,0,0,0,4.61-2l1.31,2.65a8.4,8.4,0,0,1-6.83,2l-2,5.92a8.66,8.66,0,0,0,7-2l1.36,2.73a11.6,11.6,0,0,1-9.32,2.11l-1.91,5.67a11.73,11.73,0,0,0,9.41-2.19l1.31,2.59a14.52,14.52,0,0,1-11.66,2.39l-2.82,8c25.65-1.79,31.68-21.09,31.68-21.09C166.1,37.56,149.81,16.76,149.81,16.76Z" transform="translate(-62.9 -16.76)"/></g></g></svg>