<svg xmlns="http://www.w3.org/2000/svg" width="204.72mm" height="99.79mm" viewBox="0 0 580.3 282.88"><defs><style>.cls-1{fill:#646462;}</style></defs><title>University Fellowship logo DEFAULT</title><g id="Artwork"><path class="cls-1" d="M145.6,47.86l-9,4.76v32c0,12.06,5.22,19.12,15.69,19.12,9.4,0,15.77-6.78,15.77-18.56V52.29l-8.93-4.47h21.3l-8.67,4.8V85.05c0,13.92-8,22.57-21.42,22.57-12.93,0-22.75-6.61-22.75-22.31V52.62l-9.22-4.76Z" transform="translate(-7.49 -7.33)"/><path class="cls-1" d="M215.65,101.53V77.08c0-6.12-2.29-9.55-8-9.55-4.44,0-8.42,2.46-11.29,5.26v28.73l7.1,4.41H179.66l8-4.56V69.85l-8.87-4,17.53-2.27v7.88c3.06-4.24,8.71-8.4,15.17-8.4,8.93,0,12.81,4.79,12.81,12.94v25.5l8.3,4.41H210.25Z" transform="translate(-7.49 -7.33)"/><path class="cls-1" d="M242.94,101.38V69.62l-9.48-3.74,18.15-2.5v38.16l8.63,4.41H234.93Zm-2.07-53a5.85,5.85,0,0,1,11.69,0,5.85,5.85,0,0,1-11.69,0Z" transform="translate(-7.49 -7.33)"/><path class="cls-1" d="M301,68.93l-14.54,30v0l-4.22,8.67-19.4-38.7-6.22-4.2H281l-8.75,4,12.69,27,12.38-26.91-8.59-4.11h18.15Z" transform="translate(-7.49 -7.33)"/><path class="cls-1" d="M344.3,96.58c-2.35,5.77-8.89,11-18.39,11-11.78,0-20.89-7.77-20.89-21.41C305,72.14,314.32,63,326.46,63c11.69,0,17.48,8.37,16.91,18.62h-29.2a34.05,34.05,0,0,0-.19,3.57c0,10.58,6.58,17.74,15.57,17.74A20.06,20.06,0,0,0,344.3,96.58ZM314.59,78.86h20.69c0-7.17-2.5-12.89-9.19-12.89C320.28,66,316.09,71.37,314.59,78.86Z" transform="translate(-7.49 -7.33)"/><path class="cls-1" d="M362.4,74.2c3.76-8.27,10.36-11.16,16-11.16l-1.47,9.11A14.33,14.33,0,0,0,362.4,76v25.55l9.1,4.41H345.72l8-4.56V69.62l-9.48-3.74,18.15-2.5V74.2Z" transform="translate(-7.49 -7.33)"/><path class="cls-1" d="M408.73,65.55l-.58,10.34-6.47-9.58a10.8,10.8,0,0,0-4.23-.75c-5.53,0-8.95,2.79-8.95,7.07,0,10,22.7,9.46,22.7,22.13,0,10.11-9.87,12.86-16.85,12.86A26.4,26.4,0,0,1,381,104.08l.5-11.51,6.75,11.15a11.88,11.88,0,0,0,6,1.37c5.88,0,9.35-3,9.35-7.58,0-9.22-22.4-8.33-22.4-22.14,0-7.46,6.67-12.34,16.15-12.34A25.55,25.55,0,0,1,408.73,65.55Z" transform="translate(-7.49 -7.33)"/><path class="cls-1" d="M422.62,101.38V69.62l-9.48-3.74,18.15-2.5v38.16l8.63,4.41H414.61Zm-2.06-53a5.85,5.85,0,0,1,11.69,0,5.85,5.85,0,0,1-11.69,0Z" transform="translate(-7.49 -7.33)"/><path class="cls-1" d="M468.07,100.6a14.73,14.73,0,0,1-12.26,6.45c-6.91,0-11.73-3.77-11.73-11.87V68.33h-7.32l8.11-4.78,7.88-10.29V64.72h14l-2.87,3.61H452.74V93c0,7,2.85,10,7.9,10A13.6,13.6,0,0,0,468.07,100.6Z" transform="translate(-7.49 -7.33)"/><path class="cls-1" d="M520.31,64.72l-6.18,4.43-26.65,56.73-6.61-4.82L494.24,105,476.15,69.52,469,64.72h23.82l-7.62,4,13.41,27.75L510,68.87l-8.82-4.15Z" transform="translate(-7.49 -7.33)"/><path class="cls-1" d="M137.6,128.29v27.15l13-1.1,3.37-4.6V164l-3.37-4.6-13-1v20.1l11.53,4.5H119.19l9.41-4.65V129.86l-9.6-5h34.23l7.68-1.22L162,141.08l-7.55-12.79Z" transform="translate(-7.49 -7.33)"/><path class="cls-1" d="M202.3,173.6c-2.35,5.77-8.89,11-18.39,11-11.78,0-20.89-7.77-20.89-21.41,0-14.08,9.3-23.18,21.43-23.18,11.69,0,17.48,8.37,16.91,18.62h-29.2a33.81,33.81,0,0,0-.19,3.57c0,10.59,6.58,17.74,15.57,17.74A20.05,20.05,0,0,0,202.3,173.6ZM172.6,155.88h20.68c0-7.17-2.5-12.89-9.2-12.89C178.29,143,174.1,148.39,172.6,155.88Z" transform="translate(-7.49 -7.33)"/><path class="cls-1" d="M210.21,178.4v-54l-8.87-3.93,17.53-2.31v60.41l8.63,4.41H202.2Z" transform="translate(-7.49 -7.33)"/><path class="cls-1" d="M237.12,178.4v-54l-8.87-3.93,17.53-2.31v60.41l8.63,4.41h-25.3Z" transform="translate(-7.49 -7.33)"/><path class="cls-1" d="M254,162.48c0-13,8.58-22.43,21.95-22.43,13.66,0,21.51,9.1,21.51,22.14,0,13.31-8.13,22.33-21.79,22.33C262.34,184.53,254,175.79,254,162.48Zm34.57-.14c0-10.06-3.81-19.09-12.67-19.09s-13,9-13,19.09,4.16,19.26,12.83,19.26C284.85,181.6,288.62,172.45,288.62,162.34Z" transform="translate(-7.49 -7.33)"/><path class="cls-1" d="M368.2,141.74l-6.67,4.61-15.59,38.29L332.72,153,319,184.64l-16.69-38.1-6.42-4.8H318.4l-7.42,4,10.24,26,9.53-23.5-1-2.3-5.51-4.24h19l-4.83,4.09,9.76,25.64L358.07,146l-8.42-4.22Z" transform="translate(-7.49 -7.33)"/><path class="cls-1" d="M397,142.57l-.58,10.34L390,143.34a10.8,10.8,0,0,0-4.23-.75c-5.53,0-8.95,2.79-8.95,7.07,0,10,22.7,9.46,22.7,22.13,0,10.11-9.87,12.86-16.85,12.86a26.39,26.39,0,0,1-13.38-3.54l.5-11.51,6.75,11.15a11.87,11.87,0,0,0,6,1.37c5.88,0,9.35-3,9.35-7.58,0-9.22-22.4-8.33-22.4-22.13,0-7.46,6.67-12.34,16.15-12.34A25.55,25.55,0,0,1,397,142.57Z" transform="translate(-7.49 -7.33)"/><path class="cls-1" d="M436,178.54V154.1c0-6.12-2.29-9.55-7.79-9.55-4.25,0-8.19,2.46-11.05,5.26v28.73l7.1,4.41H400.45l8-4.56v-54l-9.1-3.89,17.77-2.36V148.5c3-4.24,8.66-8.4,14.94-8.4,8.7,0,12.57,4.79,12.57,12.94v25.5l8.67,4.41H430.57Z" transform="translate(-7.49 -7.33)"/><path class="cls-1" d="M463.62,178.4V146.64l-9.48-3.74,18.15-2.5v38.15l8.63,4.41H455.61Zm-2.06-53a5.85,5.85,0,0,1,11.69,0,5.85,5.85,0,0,1-11.69,0Z" transform="translate(-7.49 -7.33)"/><path class="cls-1" d="M525.74,162c0,14.08-8.63,22.67-18.82,22.67A14.88,14.88,0,0,1,495,179.32v18.79l8.63,4.41H478.31l8-4.56V146.87l-8.87-4L495,140.63v7a16.56,16.56,0,0,1,13.77-7.58C518.66,140.05,525.74,147.3,525.74,162Zm-9,.37c0-11.91-5.27-18.12-12.14-18.12-3.47,0-7,2-9.58,5.27v27.76a12,12,0,0,0,8.21,3.43C511.77,180.69,516.71,173.51,516.71,162.35Z" transform="translate(-7.49 -7.33)"/><path class="cls-1" d="M169.17,217.89,161.5,205a20.49,20.49,0,0,0-8.16-1.35c-13.76,0-22.13,13.18-22.13,27.13,0,14.84,8.8,27.43,22.24,27.43a23.79,23.79,0,0,0,8.53-1.34l8.06-13-1.11,14.14a41.17,41.17,0,0,1-17.8,3.72c-15.38,0-29.43-10.76-29.43-30,0-18.49,13.83-31.46,31.5-31.46A37.81,37.81,0,0,1,169,203.52Z" transform="translate(-7.49 -7.33)"/><path class="cls-1" d="M209.43,255.56V231.11c0-6.12-2.29-9.55-7.79-9.55-4.25,0-8.19,2.46-11.05,5.26v28.74l7.1,4.41H173.91l8-4.56v-54l-9.1-3.89,17.77-2.36v30.37c3-4.24,8.66-8.4,14.94-8.4,8.7,0,12.57,4.79,12.57,12.94v25.5l8.68,4.41H204Z" transform="translate(-7.49 -7.33)"/><path class="cls-1" d="M245.75,228.24c3.76-8.27,10.36-11.16,16-11.16l-1.47,9.11a14.32,14.32,0,0,0-14.5,3.83v25.55l9.1,4.41H229.07l8-4.56V223.65l-9.48-3.74,18.15-2.5v10.83Z" transform="translate(-7.49 -7.33)"/><path class="cls-1" d="M272.78,255.41V223.65l-9.48-3.74,18.15-2.5v38.16l8.63,4.41H264.78Zm-2.07-53a5.85,5.85,0,0,1,11.69,0,5.85,5.85,0,0,1-11.69,0Z" transform="translate(-7.49 -7.33)"/><path class="cls-1" d="M321,219.59l-.58,10.34L314,220.35a10.82,10.82,0,0,0-4.23-.75c-5.53,0-8.94,2.79-8.94,7.07,0,10,22.7,9.46,22.7,22.13,0,10.11-9.87,12.86-16.85,12.86a26.39,26.39,0,0,1-13.38-3.54l.5-11.51,6.75,11.15a11.87,11.87,0,0,0,6,1.37c5.88,0,9.36-3,9.36-7.58,0-9.22-22.4-8.34-22.4-22.14,0-7.46,6.67-12.34,16.15-12.34A25.56,25.56,0,0,1,321,219.59Z" transform="translate(-7.49 -7.33)"/><path class="cls-1" d="M356.64,254.63a14.72,14.72,0,0,1-12.26,6.45c-6.91,0-11.73-3.77-11.73-11.87V222.37h-7.32l8.11-4.78,7.88-10.29v11.46h14l-2.87,3.61H341.31v24.72c0,7,2.85,10,7.9,10A13.6,13.6,0,0,0,356.64,254.63Z" transform="translate(-7.49 -7.33)"/><path class="cls-1" d="M367.51,255.41V223.65L358,219.91l18.15-2.5v38.16l8.63,4.41H359.5Zm-2.06-53a5.85,5.85,0,0,1,11.69,0,5.85,5.85,0,0,1-11.69,0Z" transform="translate(-7.49 -7.33)"/><path class="cls-1" d="M410,260v-5.74a16.07,16.07,0,0,1-13.55,7.06c-6.14,0-10.79-4-10.79-10.11,0-10.06,12.5-13.44,24.33-13.38V232.3c0-7.41-4.1-9.44-9.64-9.44a22.28,22.28,0,0,0-12.42,4.22l3-6.68a25.94,25.94,0,0,1,12.35-3.15c9.39,0,15.4,4.43,15.4,12.82v25.49l8.49,4.41Zm0-8.3V240.15c-9,.27-15.74,3.37-15.74,9.65a6.64,6.64,0,0,0,6.82,7A10.55,10.55,0,0,0,410,251.67Z" transform="translate(-7.49 -7.33)"/><path class="cls-1" d="M465.09,255.56V231.11c0-6.12-2.29-9.55-8-9.55-4.44,0-8.42,2.46-11.29,5.26v28.73l7.1,4.41H429.1l8-4.56V223.89l-8.87-4,17.53-2.27v7.88c3.05-4.24,8.71-8.4,15.17-8.4,8.93,0,12.81,4.79,12.81,12.94v25.5l8.3,4.41H459.69Z" transform="translate(-7.49 -7.33)"/><path class="cls-1" d="M513.11,219.59l-.58,10.34-6.47-9.58a10.81,10.81,0,0,0-4.23-.75c-5.53,0-8.95,2.79-8.95,7.07,0,10,22.7,9.46,22.7,22.13,0,10.11-9.87,12.86-16.85,12.86a26.39,26.39,0,0,1-13.38-3.54l.5-11.51,6.75,11.15a11.87,11.87,0,0,0,6,1.37c5.88,0,9.35-3,9.35-7.58,0-9.22-22.4-8.34-22.4-22.14,0-7.46,6.67-12.34,16.15-12.34A25.56,25.56,0,0,1,513.11,219.59Z" transform="translate(-7.49 -7.33)"/><path class="cls-1" d="M540.41,164.39c0-9.59,7.51-18.89,15.56-18.89,4.84,0,7.44,3.61,7.44,8.42,0,9.67-7.88,18.7-15.4,18.7C542.68,172.62,540.41,168.7,540.41,164.39Zm19.77-10.94c0-3.44-1.22-6.17-4.35-6.62-7.11.65-12.19,10.75-12.19,17.72,0,3.46,1.29,6.27,4.6,6.68C555.18,170.61,560.18,160.4,560.18,153.45Z" transform="translate(-7.49 -7.33)"/><path class="cls-1" d="M585,139.08c.62-4-1.24-5.87-2.72-5.87-3.24,0-6,3.5-7.61,9.8l-.92,3.49h7.12L579.42,148h-6.05l-6.78,25.77c-1.65,6.28-5.75,10.06-9.37,10.06a6,6,0,0,1-3.89-1.17l1.72-4.8c.09,2.77,1.06,4.48,2.71,4.48,2.13,0,4-2,5.49-7.69l7-26.65h-5.68L568,146.5h2.72l.89-3.37c2.07-7.87,6.05-11.15,10.86-11.15a7.23,7.23,0,0,1,5.35,2.44Z" transform="translate(-7.49 -7.33)"/><path class="cls-1" d="M61.32,170.76s.26-1.88.54-3.75L87,148l.69-4.34L61.94,161.95a7.68,7.68,0,0,1,.6-1.87c1.45-2.7,24.31-21,25.18-22.71V118.91c-.87.93-18.46,16.86-18.07,16.32s2.7-5.33,2.7-5.33l15.69-16.7c-.2-1.47-5.34-62.78-9.25-68.29S40.41,7.33,40.41,7.33c-.74,2.76-2.21,19.09-4.67,30.79-.48,2.26-.85,6.31-1.8,11.09l8.71,13.24-10-7.11c-3.19,14.74-8.45,32.75-9.3,35.93-1.19,4.52-7.64,18.6-7.64,18.6l10.74,25.4L12.67,115.2s-3.94,10.45-3.94,11.44,19.66,35.43,19.66,35.43l-.92,4.1-20-31.56,2.45,54.87s6.82,12.65,13.61,22.4C30,221.14,41.62,230,41.62,230s-13.31-49.49-.71-93.38S55.11,91.7,54.52,77.32s-5.19-46.41-5.19-46.41,7.11,36.38,8.05,49.3C59.07,103.44,37.1,136.1,40,184.77,42.1,214.23,45.29,227,45.29,227l15.32-8.17s12.66-20.36,15.17-23.68,7.52-17.68,7.52-17.68c-1.65,2-17.37,11-16.3,10s18.46-18.62,18.46-18.62l1.13-16.54Z" transform="translate(-7.49 -7.33)"/><path class="cls-1" d="M41.6,229.93a18.83,18.83,0,0,0,4.1,2.19l9.81,34.48s-4.34,6.64-4.6,23.6c-2-13.39-8.41-53.59-9.69-60.54Z" transform="translate(-7.49 -7.33)"/><path class="cls-1" d="M40.41,7.33c-.73,2.76-2.31,19.29-4.67,30.79-.47,2.26-.85,6.31-1.8,11.09l8.71,13.24-10-7.1c-3.19,14.74-8.2,32-9.29,35.93-1.33,4.78-7.64,18.6-7.64,18.6l10.74,25.4L12.67,115.2s-3.94,10.46-3.94,11.44,19.66,35.43,19.66,35.43l-.92,4.1-20-31.56,2.45,54.87s6.82,12.65,13.61,22.39C30,221.14,41.62,230,41.62,230s-13.3-49.49-.71-93.38S55.11,91.7,54.52,77.32,49.35,31,49.35,31Z" transform="translate(-7.49 -7.33)"/></g></svg>